<mxfile host="app.diagrams.net" modified="2020-09-11T01:27:32.794Z" agent="5.0 (Windows NT 10.0; Win64; x64) AppleWebKit/537.36 (KHTML, like Gecko) Chrome/85.0.4183.102 Safari/537.36" etag="0eAj-G6z7O6MWptcv2_p" version="13.6.9" type="github" pages="2">
  <diagram id="j52H2VfIBCnSTyqrcF7V" name="Page-1">
    <mxGraphModel dx="1038" dy="588" grid="1" gridSize="10" guides="1" tooltips="1" connect="1" arrows="1" fold="1" page="1" pageScale="1" pageWidth="827" pageHeight="1169" math="0" shadow="0">
      <root>
        <mxCell id="0" />
        <mxCell id="1" parent="0" />
      </root>
    </mxGraphModel>
  </diagram>
  <diagram id="HXGswxlGf3zdcJO3ZnlD" name="Page-2">
    <mxGraphModel dx="1038" dy="588" grid="1" gridSize="10" guides="1" tooltips="1" connect="1" arrows="1" fold="1" page="1" pageScale="1" pageWidth="827" pageHeight="1169" math="0" shadow="0">
      <root>
        <mxCell id="YISu9ZSktw07wGyBy-D3-0" />
        <mxCell id="YISu9ZSktw07wGyBy-D3-1" parent="YISu9ZSktw07wGyBy-D3-0" />
      </root>
    </mxGraphModel>
  </diagram>
</mxfile>
